<?xml version="1.0" standalone="no"?>
<!DOCTYPE svg PUBLIC "-//W3C//DTD SVG 20010904//EN"
 "http://www.w3.org/TR/2001/REC-SVG-20010904/DTD/svg10.dtd">
<svg version="1.0" xmlns="http://www.w3.org/2000/svg"
 width="128.000000pt" height="128.000000pt" viewBox="0 0 128.000000 128.000000"
 preserveAspectRatio="xMidYMid meet">
<metadata>
Created by potrace 1.14, written by Peter Selinger 2001-2017
</metadata>
<g transform="translate(0.000000,128.000000) scale(0.100000,-0.100000)"
fill="#000000" stroke="none">
<path d="M0 640 l0 -640 640 0 640 0 0 640 0 640 -640 0 -640 0 0 -640z m310
-15 l0 -525 -80 0 -80 0 0 525 0 525 80 0 80 0 0 -525z m330 238 l95 -288 3
288 2 287 75 0 75 0 0 -525 0 -525 -77 0 -78 0 -94 293 c-51 160 -97 299 -102
307 -5 8 -9 -122 -9 -292 l0 -308 -75 0 -75 0 0 525 0 525 83 0 83 0 94 -287z
m431 195 l1 -93 19 90 c10 50 18 91 19 93 0 1 34 2 75 2 73 0 75 -1 70 -22 -7
-32 -185 -1014 -185 -1022 0 -3 -35 -6 -77 -6 l-78 0 3 525 2 525 75 0 75 0 1
-92z"/>
</g>
</svg>
